<svg width="16" height="16" viewBox="0 0 16 16" fill="none" xmlns="http://www.w3.org/2000/svg">
<path d="M12.5961 11.5959L9.06108 15.1319C8.92178 15.2713 8.75638 15.3819 8.57433 15.4573C8.39228 15.5328 8.19714 15.5716 8.00008 15.5716C7.80302 15.5716 7.60788 15.5328 7.42583 15.4573C7.24378 15.3819 7.07838 15.2713 6.93908 15.1319L3.40408 11.5959C2.80046 10.9924 2.32163 10.2758 1.99492 9.48721C1.66822 8.6986 1.50005 7.85336 1.5 6.99976C1.49995 6.14616 1.66804 5.30091 1.99465 4.51226C2.32127 3.72362 2.80002 3.00703 3.40358 2.40341C4.00713 1.79979 4.72367 1.32096 5.51228 0.994253C6.30089 0.667551 7.14612 0.499375 7.99973 0.499329C8.85333 0.499282 9.69858 0.667366 10.4872 0.993982C11.2759 1.3206 11.9925 1.79935 12.5961 2.40291C13.1998 3.0065 13.6786 3.72309 14.0053 4.51177C14.332 5.30044 14.5002 6.14574 14.5002 6.99941C14.5002 7.85307 14.332 8.69838 14.0053 9.48705C13.6786 10.2757 13.1998 10.9923 12.5961 11.5959ZM11.5361 3.46391C10.5983 2.5261 9.32634 1.99825 8.00008 1.99825C6.67382 1.99825 5.40189 2.5251 4.46408 3.46291C3.52627 4.40071 2.99942 5.67265 2.99942 6.99891C2.99942 8.32517 3.52627 9.5971 4.46408 10.5349L8.00008 14.0699L11.5361 10.5359C12.0005 10.0716 12.3689 9.52034 12.6203 8.91363C12.8716 8.30692 13.001 7.65663 13.001 6.99991C13.001 6.34319 12.8716 5.6929 12.6203 5.08619C12.3689 4.47947 12.0005 3.92822 11.5361 3.46391ZM8.00008 8.99991C7.73374 9.00593 7.46888 8.95868 7.22105 8.86094C6.97323 8.76319 6.74743 8.61692 6.55691 8.43071C6.36639 8.24449 6.21499 8.02209 6.11161 7.77656C6.00822 7.53104 5.95493 7.26733 5.95486 7.00092C5.9548 6.73451 6.00796 6.47078 6.11122 6.2252C6.21448 5.97962 6.36577 5.75714 6.55619 5.57083C6.74662 5.38453 6.97235 5.23814 7.22012 5.14027C7.4679 5.0424 7.73274 4.99502 7.99908 5.00091C8.52164 5.01246 9.01891 5.22813 9.38445 5.60175C9.74998 5.97536 9.95473 6.47723 9.95486 6.99992C9.95499 7.52261 9.7505 8.02458 9.38515 8.39838C9.0198 8.77217 8.52263 8.98809 8.00008 8.99991Z" fill="#0E1234"/>
</svg>
