<svg width="24" height="24" viewBox="0 0 24 24" fill="none" xmlns="http://www.w3.org/2000/svg">
<rect width="24" height="24" fill="#CACFE2"/>
<rect width="360" height="1843" transform="translate(-16 -487)" fill="white"/>
<path d="M18.8941 17.3938L13.5916 22.6978C13.3827 22.9069 13.1346 23.0727 12.8615 23.1859C12.5884 23.299 12.2957 23.3573 12.0001 23.3573C11.7045 23.3573 11.4118 23.299 11.1387 23.1859C10.8657 23.0727 10.6176 22.9069 10.4086 22.6978L5.10612 17.3938C4.20069 16.4884 3.48244 15.4136 2.99239 14.2307C2.50233 13.0478 2.25007 11.78 2.25 10.4996C2.24993 9.21915 2.50206 7.95127 2.99198 6.7683C3.48191 5.58534 4.20004 4.51045 5.10537 3.60502C6.0107 2.69959 7.08551 1.98134 8.26842 1.49129C9.45133 1.00123 10.7192 0.748971 11.9996 0.748901C13.28 0.748832 14.5479 1.00096 15.7308 1.49088C16.9138 1.98081 17.9887 2.69894 18.8941 3.60427C19.7996 4.50966 20.5179 5.58455 21.008 6.76756C21.4981 7.95057 21.7503 9.21852 21.7503 10.499C21.7503 11.7795 21.4981 13.0475 21.008 14.2305C20.5179 15.4135 19.7996 16.4884 18.8941 17.3938ZM17.3041 5.19577C15.8974 3.78906 13.9895 2.99728 12.0001 2.99728C10.0107 2.99728 8.10283 3.78756 6.69612 5.19427C5.28941 6.60098 4.49913 8.50888 4.49913 10.4983C4.49913 12.4877 5.28941 14.3956 6.69612 15.8023L12.0001 21.1048L17.3041 15.8038C18.0008 15.1073 18.5534 14.2804 18.9304 13.3704C19.3075 12.4603 19.5015 11.4849 19.5015 10.4998C19.5015 9.51469 19.3075 8.53926 18.9304 7.62919C18.5534 6.71912 18.0008 5.89224 17.3041 5.19577ZM12.0001 13.4998C11.6006 13.5088 11.2033 13.4379 10.8316 13.2913C10.4598 13.1447 10.1211 12.9253 9.83536 12.646C9.54958 12.3666 9.32249 12.033 9.16741 11.6648C9.01233 11.2965 8.9324 10.9009 8.9323 10.5013C8.9322 10.1017 9.01193 9.70607 9.16683 9.3377C9.32172 8.96933 9.54865 8.63562 9.83429 8.35616C10.1199 8.0767 10.4585 7.85712 10.8302 7.71031C11.2019 7.56351 11.5991 7.49244 11.9986 7.50127C12.7825 7.5186 13.5284 7.84211 14.0767 8.40253C14.625 8.96295 14.9321 9.71575 14.9323 10.4998C14.9325 11.2838 14.6257 12.0368 14.0777 12.5975C13.5297 13.1582 12.784 13.482 12.0001 13.4998Z" fill="#456AEF"/>
</svg>
